<svg width="181" height="50" viewBox="0 0 181 50" fill="none" xmlns="http://www.w3.org/2000/svg">
<g clip-path="url(#clip0_604_9129)">
<path d="M54.3529 18.4867V25.0248H54.2878C47.1824 25.0339 40.8094 26.4621 34.963 29.3716C33.4529 28.0617 31.8521 26.8014 30.1606 25.6178C29.8735 25.4171 29.5852 25.2199 29.2945 25.026C29.2736 25.0102 29.2504 24.9955 29.2294 24.9809C25.3047 22.3566 21.1196 20.3106 16.7741 18.8936C16.3382 18.7527 15.901 18.6175 15.4604 18.4867H54.3529Z" fill="#42551C"/>
<path d="M27.1765 14.4578C31.1514 14.4578 34.3737 11.3332 34.3737 7.4789C34.3737 3.62456 31.1514 0.5 27.1765 0.5C23.2016 0.5 19.9792 3.62456 19.9792 7.4789C19.9792 11.3332 23.2016 14.4578 27.1765 14.4578Z" fill="#42551C"/>
<path d="M46.4 45.478C44.8085 47.0212 43.0205 48.375 41.0744 49.5C36.2278 42.8345 31.823 38.0211 27.1764 34.353C26.5998 34.8084 26.0255 35.2818 25.4535 35.7745C21.4277 39.2453 17.5204 43.6608 13.276 49.5C11.33 48.3762 9.54198 47.0212 7.95048 45.4768C11.3741 40.7851 15.2081 36.1059 19.7246 31.9947C20.2907 31.4784 20.8685 30.9712 21.4556 30.4752C15.0489 26.8228 8.01558 25.035 0.0638809 25.0248H-0.0012207V18.4867C0.466116 18.4867 0.929965 18.4923 1.39033 18.5036C10.851 18.7245 18.6341 21.2181 25.2001 25.0248C25.8709 25.4126 26.53 25.8162 27.1752 26.231C29.1969 27.5308 31.0976 28.9556 32.8949 30.474C38.1716 34.9301 42.5462 40.1967 46.3988 45.4768L46.4 45.478Z" fill="#42551C"/>
<path d="M75.5527 3.06335V10.8843H83.9973V3.06335H89.4717V23.3936H83.9973V15.5715H75.5527V23.3936H70.0784V3.06335H75.5527Z" fill="#1C1C1C"/>
<path d="M91.8677 13.2291C91.8677 6.79132 96.1772 2.61255 102.816 2.61255C109.456 2.61255 113.765 6.79132 113.765 13.2291C113.765 19.667 109.456 23.8457 102.816 23.8457C96.1772 23.8457 91.8677 19.667 91.8677 13.2291ZM102.816 19.1586C105.903 19.1586 107.884 16.8432 107.884 13.2291C107.884 9.61513 105.904 7.29972 102.816 7.29972C99.7287 7.29972 97.7501 9.61513 97.7501 13.2291C97.7501 16.8432 99.7299 19.1586 102.816 19.1586Z" fill="#1C1C1C"/>
<path d="M124.976 2.61255C129.985 2.61255 134.091 4.75886 135.139 8.08994L129.491 9.72785C129.083 8.40106 127.889 7.29972 124.978 7.29972C122.851 7.29972 121.192 7.66721 121.192 8.994C121.192 12.891 135.607 7.94903 135.607 17.1825C135.607 21.2203 131.588 23.8457 125.182 23.8457C120.174 23.8457 115.776 21.6994 114.729 18.3683L120.377 16.7304C120.786 18.0572 122.328 19.1586 125.182 19.1586C128.036 19.1586 129.725 18.2545 129.725 17.1825C129.725 13.6812 115.427 18.3683 115.427 9.27582C115.427 4.95614 119.271 2.61255 124.979 2.61255H124.976Z" fill="#1C1C1C"/>
<path d="M138.028 3.06335H148.453C154.48 3.06335 157.946 6.08443 157.946 10.0377C157.946 13.9911 154.48 17.0121 148.453 17.0121H143.503V23.3936H138.028V3.06335ZM149.327 12.325C151.132 12.325 152.065 11.0264 152.065 10.0377C152.065 9.04914 151.132 7.75053 149.327 7.75053H143.503V12.325H149.327Z" fill="#1C1C1C"/>
<path d="M159.102 13.2291C159.102 6.79132 163.411 2.61255 170.05 2.61255C176.689 2.61255 180.999 6.79132 180.999 13.2291C180.999 19.667 176.689 23.8457 170.05 23.8457C163.411 23.8457 159.102 19.667 159.102 13.2291ZM170.05 19.1586C173.137 19.1586 175.118 16.8432 175.118 13.2291C175.118 9.61513 173.138 7.29972 170.05 7.29972C166.963 7.29972 164.984 9.61513 164.984 13.2291C164.984 16.8432 166.964 19.1586 170.05 19.1586Z" fill="#1C1C1C"/>
<path d="M90.6156 38.8811C90.6156 45.3189 86.0144 49.0468 79.3751 49.0468H69.6204V28.7166H79.3751C86.0144 28.7166 90.6156 32.4433 90.6156 38.8822V38.8811ZM79.3751 44.3585C82.4617 44.3585 84.7332 42.3542 84.7332 38.8811C84.7332 35.408 82.4617 33.4037 79.3751 33.4037H75.0947V44.3596H79.3751V44.3585Z" fill="#1C1C1C"/>
<path d="M91.8677 38.8811C91.8677 32.4433 96.1772 28.2645 102.816 28.2645C109.456 28.2645 113.765 32.4433 113.765 38.8811C113.765 45.3189 109.456 49.4977 102.816 49.4977C96.1772 49.4977 91.8677 45.3189 91.8677 38.8811ZM102.816 44.8105C105.903 44.8105 107.884 42.4951 107.884 38.8811C107.884 35.2671 105.904 32.9517 102.816 32.9517C99.7287 32.9517 97.7501 35.2671 97.7501 38.8811C97.7501 42.4951 99.7299 44.8105 102.816 44.8105Z" fill="#1C1C1C"/>
<path d="M126.547 28.7155V39.7277C126.547 42.9472 125.063 44.8106 122.47 44.8106C120.27 44.8106 118.842 43.6213 118.111 41.5392C116.662 42.9438 115.215 44.3473 113.766 45.7518C115.523 48.1901 118.404 49.4977 122.47 49.4977C128.556 49.4977 132.022 45.9401 132.022 39.7277V28.7155H126.547Z" fill="#1C1C1C"/>
<path d="M134.047 38.8811C134.047 32.4433 138.356 28.2645 144.995 28.2645C151.635 28.2645 155.944 32.4433 155.944 38.8811C155.944 45.3189 151.635 49.4977 144.995 49.4977C138.356 49.4977 134.047 45.3189 134.047 38.8811ZM144.995 44.8105C148.082 44.8105 150.063 42.4951 150.063 38.8811C150.063 35.2671 148.083 32.9517 144.995 32.9517C141.908 32.9517 139.929 35.2671 139.929 38.8811C139.929 42.4951 141.909 44.8105 144.995 44.8105Z" fill="#1C1C1C"/>
</g>
<defs>
<clipPath id="clip0_604_9129">
<rect width="181" height="49" fill="white" transform="translate(0 0.5)"/>
</clipPath>
</defs>
</svg>
