<?xml version="1.0" encoding="utf-8"?>
<svg viewBox="0 0 32 32" xmlns="http://www.w3.org/2000/svg">
  <!-- Background -->
  <rect width="32" height="32" fill="#3b82f6" rx="4"/>
  
  <!-- Simplified brain with circuit pattern for favicon -->
  <g fill="none" stroke="white" stroke-width="1">
    <!-- Left brain hemisphere -->
    <path d="M8 12 C8 10, 10 8, 12 8 C14 8, 16 9, 16 11 C16 13, 14 15, 12 15 C10 15, 8 13, 8 12 Z"/>
    <path d="M8 20 C8 18, 10 16, 12 16 C14 16, 16 17, 16 19 C16 21, 14 23, 12 23 C10 23, 8 21, 8 20 Z"/>
    
    <!-- Right brain hemisphere -->
    <path d="M24 12 C24 10, 22 8, 20 8 C18 8, 16 9, 16 11 C16 13, 18 15, 20 15 C22 15, 24 13, 24 12 Z"/>
    <path d="M24 20 C24 18, 22 16, 20 16 C18 16, 16 17, 16 19 C16 21, 18 23, 20 23 C22 23, 24 21, 24 20 Z"/>
    
    <!-- Central connection -->
    <line x1="16" y1="8" x2="16" y2="24"/>
    
    <!-- Circuit nodes -->
    <circle cx="12" cy="12" r="0.5" fill="white"/>
    <circle cx="20" cy="12" r="0.5" fill="white"/>
    <circle cx="12" cy="20" r="0.5" fill="white"/>
    <circle cx="20" cy="20" r="0.5" fill="white"/>
    
    <!-- Connection lines -->
    <line x1="12" y1="12" x2="16" y2="12"/>
    <line x1="20" y1="12" x2="16" y2="12"/>
    <line x1="12" y1="20" x2="16" y2="20"/>
    <line x1="20" y1="20" x2="16" y2="20"/>
  </g>
</svg>
